Release Info:

General
Complete name                            : Absolute Fear 2012 DVDRip English
Format                                   : Matroska
Format version                           : Version 2
File size                                : 697 MiB
Duration                                 : 1h 30mn
Overall bit rate                         : 1 071 Kbps
Movie name                               : Absolute Fear 2012 


Video
ID                                       : 1
Format                                   : MPEG-4 
Codec ID/Hint                            : XviD
Duration                                 : 1h 30mn
Bit rate                                 : 922 Kbps
Width                                    : 640 pixels
Height                                   : 352 pixels
Display aspect ratio                     : 16:9
Frame rate mode                          : Constant
Frame rate                               : 23.976 fps
Color space                              : YUV
Chroma subsampling                       : 4:2:0
Bit depth                                : 8 bits
Scan type                                : Progressive
Compression mode                         : Lossy
Bits/(Pixel*Frame)                       : 0.171
Stream size                              : 600 MiB (86%)
Language                                 : English
Default                                  : Yes
Forced                                   : No

Audio
ID                                       : 2
Format                                   : MPEG Audio
Format version                           : Version 1
Format profile                           : Layer 3
Mode                                     : Joint stereo
Mode extension                           : MS Stereo
Muxing mode                              : Header stripping
Codec ID                                 : A_MPEG/L3
Codec ID/Hint                            : MP3
Duration                                 : 1h 30mn
Bit rate mode                            : Constant
Bit rate                                 : 128 Kbps
Channel(s)                               : 2 channels
Sampling rate                            : 44.1 KHz
Compression mode                         : Lossy
Stream size                              : 83.3 MiB (12%)
Language                                 : English
Default                                  : Yes
Forced                                   : No


Imdb info:

Jessie Valiquette follows her scribe boyfriend of 3 years Dale Morrow on a search for his long lost Father last heard from on a deserted island in the Philippines... See full summary ┬╗

Director: John Milton Branton
Writers: John Milton Branton, Tom Shell (story), and 1 more credit ┬╗
Stars: Stephanie Lemelin, Matthew Alan and Patrick Bergin
 
http://www.imdb.com/title/tt1296885/

Genres: Thriller


Screen Shot:
 
http://www.shotpix.com/images/74566998812271642123.png 
http://www.shotpix.com/images/63787876576441280180.png 
http://www.shotpix.com/images/46104910694251410116.png 
http://www.shotpix.com/images/47880054462724117774.png 
http://www.shotpix.com/images/66245570398540921844.png 
http://www.shotpix.com/images/11040634160886299275.png